<svg width="100%" height="100%" viewBox="0 0 1024 1024" version="1.1" xmlns="http://www.w3.org/2000/svg" xmlns:xlink="http://www.w3.org/1999/xlink" xml:space="preserve" xmlns:serif="http://www.serif.com/" style="fill-rule:evenodd;clip-rule:evenodd;stroke-linejoin:round;stroke-miterlimit:2;">
    <path id="Background" d="M1024,128C1024,57.308 966.692,0 896,0L128,0C57.308,0 0,57.308 0,128L0,896C0,966.692 57.308,1024 128,1024L896,1024C966.692,1024 1024,966.692 1024,896L1024,128Z"/>
    <g id="Stars-group" serif:id="Stars group">
        <g id="Large-star" serif:id="Large star" transform="matrix(0.963156,0,0,0.963156,18.8643,18.8643)">
            <path d="M496.501,125.415C498.277,118.302 504.668,113.311 512,113.311C519.332,113.311 525.723,118.302 527.499,125.415C573.37,307.312 716.688,450.63 898.585,496.501C905.698,498.277 910.689,504.668 910.689,512C910.689,519.332 905.698,525.723 898.585,527.499C716.688,573.37 573.37,716.688 527.499,898.585C525.723,905.698 519.332,910.689 512,910.689C504.668,910.689 498.277,905.698 496.501,898.585C450.63,716.688 307.312,573.37 125.415,527.499C118.302,525.723 113.311,519.332 113.311,512C113.311,504.668 118.302,498.277 125.415,496.501C307.312,450.63 450.63,307.312 496.501,125.415Z" style="fill:white;"/>
        </g>
        <g id="Small-star" serif:id="Small star" transform="matrix(0.321052,0,0,0.321052,603.621,91.6214)">
            <path d="M496.501,125.415C498.277,118.302 504.668,113.311 512,113.311C519.332,113.311 525.723,118.302 527.499,125.415C573.37,307.312 716.688,450.63 898.585,496.501C905.698,498.277 910.689,504.668 910.689,512C910.689,519.332 905.698,525.723 898.585,527.499C716.688,573.37 573.37,716.688 527.499,898.585C525.723,905.698 519.332,910.689 512,910.689C504.668,910.689 498.277,905.698 496.501,898.585C450.63,716.688 307.312,573.37 125.415,527.499C118.302,525.723 113.311,519.332 113.311,512C113.311,504.668 118.302,498.277 125.415,496.501C307.312,450.63 450.63,307.312 496.501,125.415Z" style="fill:white;"/>
        </g>
    </g>
</svg>
